PathFileType	4	(X/Y/Z)	 D:\Google Drive\Share to the world\OpenSim\ScaleTool\TRC\Walk_Mkrs.trc
DataRate	CameraRate	NumFrames	NumMarkers	Units	OrigDataRate	OrigDataStartFrame	OrigNumFrames
100	100	9	34	m	100	407	542
Frame#	time	C7			T10			CLAV			STRN			LSHO			LELB			LWRA			LWRB			LFIN			RSHO			RELB			RWRA			RWRB			RFIN			LASI			RASI			LPSI			RPSI			LTHI			LKNE			LTIB			LANK			LHEE			LTOE			RTHI			RKNE			RTIB			RANK			RHEE			RTOE			RPINKY			LPINKY			INRKNE			INLKNE			
		X1	Y1	Z1	X2	Y2	Z2	X3	Y3	Z3	X4	Y4	Z4	X5	Y5	Z5	X6	Y6	Z6	X7	Y7	Z7	X8	Y8	Z8	X9	Y9	Z9	X10	Y10	Z10	X11	Y11	Z11	X12	Y12	Z12	X13	Y13	Z13	X14	Y14	Z14	X15	Y15	Z15	X16	Y16	Z16	X17	Y17	Z17	X18	Y18	Z18	X19	Y19	Z19	X20	Y20	Z20	X21	Y21	Z21	X22	Y22	Z22	X23	Y23	Z23	X24	Y24	Z24	X25	Y25	Z25	X26	Y26	Z26	X27	Y27	Z27	X28	Y28	Z28	X29	Y29	Z29	X30	Y30	Z30	X31	Y31	Z31	X32	Y32	Z32	X33	Y33	Z33	X34	Y34	Z34	

407	4.0600	-0.090940	1.455200	0.187900	-0.116420	1.205530	0.185030	0.059060	1.360870	0.194040	0.095960	1.209850	0.199170	-0.022880	1.419700	0.010800	-0.110870	1.117290	-0.054500	-0.146290	0.860040	-0.032400	-0.197880	0.885380	-0.066280	-0.203580	0.801350	-0.071050	-0.030100	1.430810	0.361150	0.090220	1.146470	0.466090	0.303550	1.060000	0.364590	0.293580	1.025680	0.414130	0.361240	1.012700	0.394400	0.096900	0.941740	0.087200	0.048060	0.936620	0.348340	-0.077430	1.039620	0.137410	-0.089580	1.039260	0.223160	0.130240	0.654220	0.036720	0.179650	0.474530	0.064240	0.213050	0.273660	0.057210	0.279370	0.076660	0.099350	0.221660	0.079280	0.133650	0.424300	0.062340	0.169120	-0.034650	0.634210	0.350920	-0.060250	0.445550	0.326540	-0.166120	0.298760	0.326960	-0.284610	0.102510	0.272290	-0.318990	0.143460	0.233480	-0.147580	0.035850	0.228540	-0.201030	0.027720	0.296500	0.392780	0.033360	0.090690	-0.051450	0.447480	0.220060	0.162390	0.461440	0.170880	
408	4.0700	-0.081980	1.455590	0.186090	-0.107240	1.205870	0.183690	0.068110	1.361450	0.192690	0.105210	1.210490	0.198110	-0.013600	1.419710	0.009110	-0.097670	1.115890	-0.055810	-0.128860	0.858170	-0.033370	-0.180880	0.882590	-0.067340	-0.184950	0.798530	-0.072200	-0.021410	1.431190	0.359770	0.094750	1.144340	0.464350	0.306430	1.050800	0.365230	0.294600	1.017020	0.414800	0.361970	1.001390	0.395890	0.105990	0.942920	0.085590	0.057700	0.936410	0.346760	-0.068270	1.040340	0.136580	-0.080140	1.039500	0.222470	0.139080	0.655230	0.035360	0.188560	0.475330	0.063420	0.220020	0.273910	0.056590	0.282250	0.075900	0.099330	0.224340	0.079900	0.133330	0.426640	0.056830	0.170000	-0.022960	0.633520	0.350200	-0.047750	0.445020	0.326870	-0.157380	0.301110	0.327010	-0.280700	0.107770	0.272700	-0.313690	0.149990	0.233610	-0.147430	0.035700	0.228330	-0.200450	0.028360	0.295660	0.394240	0.030020	0.089940	-0.038290	0.446320	0.219990	0.170470	0.462720	0.170020	
409	4.0800	-0.073100	1.456200	0.184350	-0.098230	1.206480	0.182470	0.077070	1.362250	0.191360	0.114350	1.211350	0.197040	-0.004400	1.420050	0.007490	-0.084230	1.114810	-0.057120	-0.110630	0.856630	-0.034440	-0.163180	0.880030	-0.068420	-0.165420	0.795980	-0.073450	-0.012650	1.431860	0.358390	0.099100	1.142500	0.462570	0.308750	1.041490	0.365950	0.294970	1.008360	0.415580	0.361900	0.989890	0.397460	0.114810	0.944330	0.083850	0.067290	0.936470	0.345060	-0.059310	1.041270	0.135830	-0.070900	1.040010	0.221820	0.147910	0.656450	0.033910	0.197280	0.476230	0.062630	0.226470	0.274240	0.055940	0.284600	0.075310	0.099360	0.226480	0.080540	0.133010	0.428450	0.052160	0.170850	-0.010820	0.633020	0.349620	-0.034460	0.444710	0.327440	-0.147790	0.303830	0.327190	-0.275950	0.113550	0.273190	-0.307430	0.157110	0.233790	-0.147260	0.035550	0.228010	-0.199640	0.029240	0.294740	0.395300	0.027610	0.089020	-0.024190	0.445280	0.220230	0.178560	0.464160	0.169100	
410	4.0900	-0.064300	1.457030	0.182700	-0.089420	1.207320	0.181350	0.085930	1.363230	0.190040	0.123330	1.212390	0.195950	0.004730	1.420690	0.005950	-0.070600	1.114050	-0.058440	-0.091640	0.855450	-0.035600	-0.144840	0.877730	-0.069520	-0.145070	0.793740	-0.074800	-0.003840	1.432800	0.357010	0.103260	1.140940	0.460780	0.310470	1.032150	0.366760	0.294700	0.999780	0.416460	0.361030	0.978340	0.399090	0.123370	0.945880	0.082000	0.076750	0.936790	0.343260	-0.050560	1.042370	0.135120	-0.061900	1.040740	0.221150	0.156650	0.657800	0.032460	0.205670	0.477160	0.061920	0.232360	0.274620	0.055360	0.286440	0.074880	0.099480	0.228090	0.081150	0.132760	0.429770	0.048370	0.171750	0.001700	0.632710	0.349190	-0.020440	0.444630	0.328230	-0.137320	0.306890	0.327520	-0.270280	0.119790	0.273740	-0.300130	0.164760	0.234020	-0.147010	0.035470	0.227590	-0.198530	0.030440	0.293790	0.396030	0.026060	0.088120	-0.009170	0.444350	0.220800	0.186530	0.465620	0.168140	
411	4.1000	-0.055610	1.458030	0.181130	-0.080810	1.208360	0.180320	0.094670	1.364370	0.188760	0.132140	1.213560	0.194840	0.013780	1.421590	0.004500	-0.056800	1.113590	-0.059780	-0.071970	0.854650	-0.036860	-0.125930	0.875700	-0.070640	-0.123960	0.791840	-0.076250	0.005000	1.433920	0.355650	0.107240	1.139610	0.458990	0.311580	1.022820	0.367650	0.293860	0.991360	0.417460	0.359380	0.966830	0.400760	0.131680	0.947520	0.080090	0.086010	0.937350	0.341410	-0.042030	1.043590	0.134380	-0.053140	1.041650	0.220410	0.165140	0.659170	0.031080	0.213610	0.478060	0.061280	0.237670	0.275010	0.054910	0.287820	0.074570	0.099700	0.229230	0.081700	0.132600	0.430710	0.045420	0.172730	0.014520	0.632630	0.348920	-0.005740	0.444820	0.329220	-0.125970	0.310260	0.327990	-0.263610	0.126450	0.274350	-0.291750	0.172850	0.234320	-0.146570	0.035530	0.227090	-0.197030	0.032010	0.292830	0.396530	0.025190	0.087370	0.006710	0.443550	0.221680	0.194200	0.467030	0.167230	
412	4.1100	-0.047030	1.459180	0.179650	-0.072400	1.209570	0.179340	0.103260	1.365610	0.187510	0.140770	1.214820	0.193690	0.022720	1.422720	0.003120	-0.042870	1.113400	-0.061140	-0.051750	0.854220	-0.038200	-0.106530	0.873950	-0.071760	-0.102170	0.790300	-0.077790	0.013830	1.435180	0.354290	0.111070	1.138490	0.457230	0.312070	1.013550	0.368620	0.292490	0.983160	0.418590	0.357010	0.955470	0.402470	0.139760	0.949150	0.078160	0.095000	0.938160	0.339550	-0.033710	1.044890	0.133560	-0.044650	1.042710	0.219560	0.173230	0.660460	0.029800	0.220990	0.478900	0.060700	0.242420	0.275400	0.054590	0.288800	0.074370	0.099990	0.229970	0.082180	0.132550	0.431380	0.043220	0.173720	0.027540	0.632780	0.348780	0.009520	0.445290	0.330340	-0.113780	0.313890	0.328590	-0.255930	0.133450	0.275020	-0.282300	0.181250	0.234660	-0.145770	0.035830	0.226590	-0.195060	0.034020	0.291910	0.396840	0.024820	0.086810	0.023330	0.442910	0.222830	0.201380	0.468330	0.166380	
413	4.1200	-0.038570	1.460440	0.178260	-0.064180	1.210900	0.178370	0.111720	1.366920	0.186310	0.149200	1.216130	0.192520	0.031560	1.424030	0.001830	-0.028830	1.113460	-0.062530	-0.031090	0.854190	-0.039570	-0.086710	0.872470	-0.072890	-0.079780	0.789130	-0.079400	0.022610	1.436520	0.352970	0.114760	1.137540	0.455510	0.311940	1.004370	0.369650	0.290630	0.975240	0.419850	0.353950	0.944330	0.404220	0.147610	0.950740	0.076280	0.103690	0.939180	0.337730	-0.025600	1.046260	0.132650	-0.036410	1.043870	0.218580	0.180760	0.661580	0.028610	0.227760	0.479650	0.060180	0.246610	0.275760	0.054400	0.289480	0.074240	0.100330	0.230410	0.082590	0.132590	0.431870	0.041660	0.174650	0.040650	0.633180	0.348770	0.025250	0.446060	0.331530	-0.100840	0.317760	0.329300	-0.247270	0.140730	0.275710	-0.271850	0.189870	0.235030	-0.144360	0.036510	0.226180	-0.192490	0.036580	0.291060	0.397030	0.024760	0.086400	0.040520	0.442480	0.224150	0.207970	0.469480	0.165610	
414	4.1300	-0.030250	1.461770	0.176950	-0.056160	1.212320	0.177390	0.120020	1.368280	0.185150	0.157440	1.217460	0.191320	0.040280	1.425470	0.000620	-0.014700	1.113730	-0.063930	-0.010130	0.854540	-0.040930	-0.066520	0.871260	-0.074030	-0.056880	0.788350	-0.081060	0.031280	1.437890	0.351690	0.118350	1.136760	0.453830	0.311210	0.995330	0.370740	0.288340	0.967640	0.421230	0.350290	0.933490	0.405990	0.155250	0.952220	0.074490	0.112040	0.940390	0.335980	-0.017680	1.047670	0.131620	-0.028420	1.045120	0.217490	0.187670	0.662500	0.027510	0.233910	0.480260	0.059670	0.250270	0.276070	0.054300	0.289930	0.074150	0.100680	0.230660	0.082960	0.132700	0.432240	0.040590	0.175470	0.053750	0.633820	0.348840	0.041290	0.447130	0.332730	-0.087240	0.321820	0.330090	-0.237730	0.148210	0.276350	-0.260510	0.198580	0.235360	-0.142040	0.037680	0.226010	-0.189180	0.039790	0.290320	0.397150	0.024850	0.086130	0.058080	0.442330	0.225550	0.213900	0.470470	0.164920	
415	4.1400	-0.022070	1.463150	0.175720	-0.048310	1.213790	0.176350	0.128160	1.369640	0.184050	0.165480	1.218780	0.190120	0.048870	1.427000	-0.000510	-0.000510	1.114180	-0.065360	0.011060	0.855260	-0.042270	-0.046030	0.870320	-0.075180	-0.033530	0.787960	-0.082750	0.039810	1.439250	0.350460	0.121870	1.136110	0.452210	0.309920	0.986470	0.371880	0.285670	0.960410	0.422730	0.346080	0.923030	0.407790	0.162670	0.953570	0.072820	0.120040	0.941760	0.334320	-0.009960	1.049090	0.130490	-0.020690	1.046430	0.216300	0.193980	0.663190	0.026490	0.239440	0.480740	0.059170	0.253430	0.276310	0.054280	0.290210	0.074090	0.101030	0.230800	0.083280	0.132860	0.432530	0.039890	0.176150	0.066740	0.634700	0.348950	0.057530	0.448500	0.333880	-0.073120	0.325990	0.330920	-0.227450	0.155820	0.276880	-0.248420	0.207270	0.235590	-0.138500	0.039470	0.226250	-0.184990	0.043750	0.289750	0.397220	0.025020	0.085950	0.075790	0.442540	0.226920	0.219200	0.471290	0.164290	
